<svg width="59" height="59" viewBox="0 0 59 59" fill="none" xmlns="http://www.w3.org/2000/svg">
<circle cx="29.5" cy="29.5" r="29.5" fill="#D7DAF9"/>
<path fill-rule="evenodd" clip-rule="evenodd" d="M26.9299 18.2456C24.3269 18.82 22.0129 20.3085 20.4107 22.4449C19.5187 23.6341 18.8736 24.9897 18.513 26.4318L18.2984 27.2904C17.9287 28.769 17.892 30.3112 18.1909 31.8057C18.7263 34.4827 20.3032 36.8374 22.5747 38.3518L23.4759 38.9525C25.6925 40.4303 28.3667 41.0615 31.0101 40.7311C34.9231 40.242 38.2828 37.7136 39.8362 34.089L40.0373 33.6198C31.1043 36.2584 22.8284 27.0346 26.9233 18.2598L26.9299 18.2456ZM27.2742 15.1661C29.2631 14.7683 30.8595 16.8009 30.0018 18.6389L29.5965 19.5073C26.4647 26.2185 33.1904 33.2874 40.049 30.4932C42.0665 29.6712 44.0664 31.7075 43.2082 33.7099L42.5477 35.2511C40.5815 39.8389 36.3289 43.0392 31.376 43.6583C28.03 44.0766 24.6452 43.2775 21.8395 41.4071L20.9384 40.8063C18.0159 38.858 15.987 35.8285 15.2982 32.3843C14.9136 30.4615 14.9609 28.4773 15.4364 26.575L15.6511 25.7163C16.107 23.8927 16.9228 22.1787 18.0507 20.6749C20.1326 17.8989 23.1649 15.988 26.5674 15.3074L27.2742 15.1661Z" fill="#080715"/>
</svg>
