<svg width="20" height="20" viewBox="0 0 20 20" fill="none" xmlns="http://www.w3.org/2000/svg">
<path d="M13.7526 5H11.2526C10.7924 5 10.4193 5.3731 10.4193 5.83333V8.33333H13.7526C13.8474 8.33123 13.9373 8.37533 13.9936 8.45158C14.0499 8.52783 14.0658 8.62667 14.0359 8.71667L13.4193 10.55C13.3624 10.7182 13.2052 10.832 13.0276 10.8333H10.4193V17.0833C10.4193 17.3134 10.2327 17.5 10.0026 17.5H7.91927C7.68915 17.5 7.5026 17.3134 7.5026 17.0833V10.8333H6.2526C6.02249 10.8333 5.83594 10.6467 5.83594 10.4167V8.75C5.83594 8.51992 6.02249 8.33333 6.2526 8.33333H7.5026V5.83333C7.5026 3.99238 8.99502 2.5 10.8359 2.5H13.7526C13.9827 2.5 14.1693 2.68655 14.1693 2.91667V4.58333C14.1693 4.81345 13.9827 5 13.7526 5Z" fill="white"/>
</svg>
