<svg width="66" height="62" viewBox="0 0 66 62" fill="none" xmlns="http://www.w3.org/2000/svg">
<path d="M65.1444 51.3394L36.2818 28.7198C35.0755 27.7548 33.7031 27.3777 32.165 27.5889C30.6269 27.7999 29.4055 28.5388 28.5007 29.8055L17.3719 45.2773L4.6144 35.0533C3.8302 34.3898 3.07627 33.9073 2.35244 33.6056C1.62861 33.3041 0.844417 33.093 0 32.9723V15.0575C0.301546 15.0575 0.648405 15.1179 1.04043 15.2385C1.4326 15.3592 1.80957 15.5703 2.17148 15.8719L14.4765 25.1007L30.9436 2.11914C31.4261 1.45568 32.0444 1.07871 32.7983 0.988227C33.5524 0.89775 34.2309 1.09376 34.8342 1.57627L50.6679 14.2432H62.4301C63.2143 14.2432 63.8627 14.4996 64.3755 15.0124C64.8881 15.525 65.1444 16.1735 65.1444 16.9576V51.3394Z" fill="url(#paint0_linear_89_241)"/>
<path d="M2.88445 61.797C2.10302 61.797 1.45691 61.5415 0.946108 61.0307C0.435161 60.5198 0.179688 59.8737 0.179688 59.0922V39.9786C0.540322 39.9786 0.930962 40.0238 1.35175 40.1139C1.77254 40.2041 2.16318 40.3994 2.52381 40.6999L18.5721 53.5926L31.3746 35.9215C31.8554 35.2603 32.4715 34.8847 33.2229 34.7945C33.9742 34.7044 34.6503 34.8997 35.2514 35.3805L65.0939 58.7316V59.0922C65.0939 59.8737 64.8385 60.5198 64.3277 61.0307C63.8167 61.5415 63.1706 61.797 62.3892 61.797H2.88445Z" fill="#2347DA"/>
<defs>
<linearGradient id="paint0_linear_89_241" x1="63.1374" y1="69.8664" x2="20.9286" y2="-34.4141" gradientUnits="userSpaceOnUse">
<stop offset="0.202511" stop-color="#2E314B"/>
<stop offset="1" stop-opacity="0"/>
</linearGradient>
</defs>
</svg>
