<svg width="20" height="20" viewBox="0 0 20 20" fill="none" xmlns="http://www.w3.org/2000/svg">
<path d="M12.5 10C12.5 10.4945 12.3534 10.9778 12.0787 11.3889C11.804 11.8 11.4135 12.1205 10.9567 12.3097C10.4999 12.4989 9.99723 12.5484 9.51227 12.452C9.02732 12.3555 8.58186 12.1174 8.23223 11.7678C7.8826 11.4181 7.6445 10.9727 7.54804 10.4877C7.45157 10.0028 7.50108 9.50011 7.6903 9.04329C7.87952 8.58648 8.19995 8.19603 8.61107 7.92133C9.0222 7.64662 9.50555 7.5 10 7.5C10.6628 7.50076 11.2983 7.76439 11.7669 8.23307C12.2356 8.70175 12.4992 9.33719 12.5 10ZM17.8125 6.5625V13.4375C17.8112 14.5974 17.3498 15.7095 16.5296 16.5296C15.7095 17.3498 14.5974 17.8112 13.4375 17.8125H6.5625C5.40258 17.8112 4.29055 17.3498 3.47036 16.5296C2.65017 15.7095 2.18881 14.5974 2.1875 13.4375V6.5625C2.18881 5.40258 2.65017 4.29055 3.47036 3.47036C4.29055 2.65017 5.40258 2.18881 6.5625 2.1875H13.4375C14.5974 2.18881 15.7095 2.65017 16.5296 3.47036C17.3498 4.29055 17.8112 5.40258 17.8125 6.5625ZM13.75 10C13.75 9.25832 13.5301 8.5333 13.118 7.91661C12.706 7.29993 12.1203 6.81928 11.4351 6.53545C10.7498 6.25162 9.99584 6.17736 9.26841 6.32206C8.54098 6.46675 7.8728 6.8239 7.34835 7.34835C6.8239 7.8728 6.46675 8.54098 6.32206 9.26841C6.17736 9.99584 6.25162 10.7498 6.53545 11.4351C6.81928 12.1203 7.29993 12.706 7.91661 13.118C8.5333 13.5301 9.25832 13.75 10 13.75C10.9942 13.7489 11.9474 13.3534 12.6504 12.6504C13.3534 11.9474 13.7489 10.9942 13.75 10ZM15 5.9375C15 5.75208 14.945 5.57082 14.842 5.41665C14.739 5.26248 14.5926 5.14232 14.4213 5.07136C14.25 5.00041 14.0615 4.98184 13.8796 5.01801C13.6977 5.05419 13.5307 5.14348 13.3996 5.27459C13.2685 5.4057 13.1792 5.57275 13.143 5.7546C13.1068 5.93646 13.1254 6.12496 13.1964 6.29627C13.2673 6.46757 13.3875 6.61399 13.5417 6.717C13.6958 6.82002 13.8771 6.875 14.0625 6.875C14.3111 6.875 14.5496 6.77623 14.7254 6.60041C14.9012 6.4246 15 6.18614 15 5.9375Z" fill="white"/>
</svg>
