<svg width="59" height="59" viewBox="0 0 59 59" fill="none" xmlns="http://www.w3.org/2000/svg">
<circle cx="29.5" cy="29.5" r="29.5" fill="url(#paint0_linear_66_272)"/>
<path d="M29.5 14.75C30.3146 14.75 30.975 15.4104 30.975 16.225V17.7C30.975 18.5146 30.3146 19.175 29.5 19.175C28.6854 19.175 28.025 18.5146 28.025 17.7V16.225C28.025 15.4104 28.6854 14.75 29.5 14.75Z" fill="white"/>
<path d="M18.132 18.132C18.708 17.556 19.642 17.556 20.218 18.132L21.693 19.607C22.269 20.183 22.269 21.117 21.693 21.693C21.117 22.269 20.183 22.269 19.607 21.693L18.132 20.218C17.556 19.642 17.556 18.708 18.132 18.132Z" fill="white"/>
<path d="M40.868 20.218L39.393 21.693C38.817 22.269 37.883 22.269 37.307 21.693C36.731 21.117 36.731 20.183 37.307 19.607L38.782 18.132C39.358 17.556 40.292 17.556 40.868 18.132C41.444 18.708 41.444 19.642 40.868 20.218Z" fill="white"/>
<path d="M39.393 37.307C38.817 36.731 37.883 36.731 37.307 37.307C36.731 37.883 36.731 38.817 37.307 39.393L38.782 40.868C39.358 41.444 40.292 41.444 40.868 40.868C41.444 40.292 41.444 39.358 40.868 38.782L39.393 37.307Z" fill="white"/>
<path d="M21.693 37.307C22.269 37.883 22.269 38.817 21.693 39.393L20.218 40.868C19.642 41.444 18.708 41.444 18.132 40.868C17.556 40.292 17.556 39.358 18.132 38.782L19.607 37.307C20.183 36.731 21.117 36.731 21.693 37.307Z" fill="white"/>
<path d="M30.975 41.3C30.975 40.4854 30.3146 39.825 29.5 39.825C28.6854 39.825 28.025 40.4854 28.025 41.3V42.775C28.025 43.5896 28.6854 44.25 29.5 44.25C30.3146 44.25 30.975 43.5896 30.975 42.775V41.3Z" fill="white"/>
<path d="M16.225 28.025C15.4104 28.025 14.75 28.6854 14.75 29.5C14.75 30.3146 15.4104 30.975 16.225 30.975H17.7C18.5146 30.975 19.175 30.3146 19.175 29.5C19.175 28.6854 18.5146 28.025 17.7 28.025H16.225Z" fill="white"/>
<path d="M39.825 29.5C39.825 28.6854 40.4854 28.025 41.3 28.025H42.775C43.5896 28.025 44.25 28.6854 44.25 29.5C44.25 30.3146 43.5896 30.975 42.775 30.975H41.3C40.4854 30.975 39.825 30.3146 39.825 29.5Z" fill="white"/>
<path fill-rule="evenodd" clip-rule="evenodd" d="M29.5 22.125C25.4269 22.125 22.125 25.4269 22.125 29.5C22.125 33.5731 25.4269 36.875 29.5 36.875C33.5731 36.875 36.875 33.5731 36.875 29.5C36.875 25.4269 33.5731 22.125 29.5 22.125ZM25.075 29.5C25.075 27.0561 27.0561 25.075 29.5 25.075C31.9439 25.075 33.925 27.0561 33.925 29.5C33.925 31.9439 31.9439 33.925 29.5 33.925C27.0561 33.925 25.075 31.9439 25.075 29.5Z" fill="white"/>
<defs>
<linearGradient id="paint0_linear_66_272" x1="29.5" y1="0" x2="29.5" y2="59" gradientUnits="userSpaceOnUse">
<stop stop-color="#4B5EFC"/>
<stop offset="1" stop-color="#1740D1"/>
</linearGradient>
</defs>
</svg>
