<svg width="24" height="24" viewBox="0 0 24 24" fill="none" xmlns="http://www.w3.org/2000/svg">
<path d="M19.8164 13.6833V19.1995C19.8164 19.3349 19.7003 19.4511 19.5648 19.4511H16.7197C16.5842 19.4511 16.468 19.3349 16.468 19.1995V14.0704C16.468 12.7156 15.9842 11.7866 14.7648 11.7866C13.8358 11.7866 13.2939 12.4059 13.0422 13.0059C12.9455 13.2188 12.9261 13.5285 12.9261 13.8188V19.1995C12.9261 19.3349 12.81 19.4511 12.6745 19.4511H9.84869C9.71321 19.4511 9.59708 19.3349 9.59708 19.1995C9.59708 17.8253 9.63579 11.1866 9.59708 9.63817C9.59708 9.50268 9.71321 9.38656 9.84869 9.38656H12.6939C12.8293 9.38656 12.9455 9.50268 12.9455 9.63817V10.8188C12.9455 10.8382 12.9261 10.8382 12.9261 10.8575H12.9455V10.8188C13.3906 10.1414 14.1842 9.1543 15.9648 9.1543C18.1713 9.1543 19.8164 10.6059 19.8164 13.6833ZM4.64224 19.4704H7.4874C7.62288 19.4704 7.73901 19.3543 7.73901 19.2188V9.63817C7.73901 9.50268 7.62288 9.38656 7.4874 9.38656H4.64224C4.50675 9.38656 4.39062 9.50268 4.39062 9.63817V19.2188C4.40998 19.3543 4.50675 19.4704 4.64224 19.4704Z" fill="white"/>
<path d="M5.97969 8.1293C6.9738 8.1293 7.77969 7.32341 7.77969 6.3293C7.77969 5.33518 6.9738 4.5293 5.97969 4.5293C4.98557 4.5293 4.17969 5.33518 4.17969 6.3293C4.17969 7.32341 4.98557 8.1293 5.97969 8.1293Z" fill="white"/>
</svg>
