<svg width="20" height="20" viewBox="0 0 20 20" fill="none" xmlns="http://www.w3.org/2000/svg">
<path d="M17.478 5.59783C17.091 6.1141 16.6232 6.56444 16.0926 6.93147C16.0926 7.06633 16.0926 7.20118 16.0926 7.34354C16.0969 9.79258 15.1186 12.1409 13.3772 13.8621C11.6357 15.5833 9.27671 16.5333 6.82909 16.4991C5.41404 16.5038 4.01711 16.1808 2.74773 15.5551C2.67928 15.5252 2.63514 15.4575 2.6354 15.3828V15.3003C2.6354 15.1928 2.72257 15.1056 2.83011 15.1056C4.22106 15.0597 5.5624 14.5774 6.66433 13.727C5.40532 13.7016 4.27254 12.9558 3.75121 11.8089C3.72489 11.7463 3.73308 11.6744 3.77286 11.6193C3.81262 11.5643 3.87821 11.5339 3.94592 11.5393C4.32856 11.5777 4.71503 11.5421 5.08421 11.4343C3.69437 11.1458 2.65006 9.992 2.5006 8.57975C2.49529 8.512 2.52565 8.44642 2.58071 8.40658C2.63577 8.36684 2.70758 8.35858 2.7702 8.385C3.14316 8.54958 3.54579 8.63625 3.95341 8.63967C2.73558 7.84038 2.20956 6.32004 2.67284 4.93852C2.72066 4.80428 2.83556 4.7051 2.9753 4.67745C3.11503 4.64979 3.25901 4.69774 3.35431 4.80366C4.99771 6.55271 7.25575 7.59497 9.6523 7.71066C9.59096 7.46571 9.5608 7.21397 9.56246 6.96143C9.58488 5.63727 10.4042 4.45768 11.6369 3.97489C12.8695 3.49212 14.2715 3.80169 15.1865 4.7587C15.8102 4.63988 16.4132 4.43038 16.9763 4.13684C17.0175 4.11109 17.0699 4.11109 17.1111 4.13684C17.1369 4.17811 17.1369 4.23043 17.1111 4.2717C16.8384 4.89627 16.3776 5.4201 15.7931 5.77016C16.305 5.7108 16.8078 5.59006 17.2909 5.41053C17.3315 5.38285 17.385 5.38285 17.4256 5.41053C17.4597 5.42612 17.4852 5.45593 17.4953 5.49202C17.5054 5.52811 17.499 5.56682 17.478 5.59783Z" fill="white"/>
</svg>
